<?xml version="1.0" encoding="iso-8859-1"?>
<!-- Uploaded to: SVG Repo, www.svgrepo.com, Generator: SVG Repo Mixer Tools -->
<svg version="1.1" id="Layer_1" xmlns="http://www.w3.org/2000/svg" xmlns:xlink="http://www.w3.org/1999/xlink" 
	 viewBox="0 0 392.542 392.542" xml:space="preserve">
<path style="fill:#FFC10D;" d="M23.078,102.598c-1.939,6.594,3.62,13.964,10.925,13.834h324.525
	c7.434-0.065,12.8-6.594,10.925-13.834l-21.075-72.857c-1.422-4.719-5.818-7.952-10.925-7.952H55.078
	c-5.042,0-9.503,3.232-10.925,7.952"/>
<path style="fill:#194F82;" d="M391.239,96.715l-21.075-72.857c-4.073-14.093-17.519-23.855-32.582-23.855H55.078
	c-15.127,0-28.574,9.826-32.582,23.855L1.356,96.715c-4.655,16.226,2.909,31.03,19.006,38.723v224.323
	c0,18.101,15.127,32.776,33.875,32.776h284.057c18.683,0,33.939-14.675,33.939-32.711V135.439
	C388.007,129.168,395.829,111.972,391.239,96.715z M215.207,370.752h-37.818v-60.897l18.941-18.23l18.941,18.23v60.897H215.207z
	 M349.672,359.827c0,6.012-5.107,10.925-11.313,10.925H237.833V305.33c0-2.844-1.164-5.624-3.297-7.758l-30.19-29.156
	c-4.396-4.267-11.572-4.267-15.968,0l-30.255,29.156c-2.069,2.004-3.297,4.784-3.297,7.758v65.422H54.237
	c-6.271,0-11.313-4.848-11.313-10.925V138.218h306.683v221.608H349.672z M358.593,116.433H34.003
	c-7.176,0.129-12.735-7.24-10.925-13.834l1.293-4.461H57.47c6.271,0,11.313-4.848,11.313-10.925c0-6.012-5.042-10.925-11.313-10.925
	H30.771l4.848-16.679h62.125c6.271,0,11.313-4.848,11.313-10.925c0-6.012-5.042-10.925-11.313-10.925H41.89l2.327-8.016
	c1.422-4.719,5.818-7.952,10.925-7.952h282.376c5.042,0,9.503,3.232,10.925,7.952l21.075,72.857
	C371.393,109.903,366.027,116.433,358.593,116.433z"/>
<path style="fill:#FFFFFF;" d="M42.924,359.827c0,6.012,5.107,10.925,11.313,10.925h100.525V305.33c0-2.844,1.164-5.624,3.297-7.758
	l30.19-29.156c4.396-4.267,11.572-4.267,15.968,0l30.19,29.156c2.069,2.004,3.297,4.784,3.297,7.758v65.422h100.525
	c6.271,0,11.313-4.848,11.313-10.925V138.218H42.924V359.827z"/>
<g>
	<polygon style="fill:#56ACE0;" points="215.207,309.855 196.266,291.56 177.389,309.855 177.389,370.752 215.207,370.752 	"/>
	<rect x="86.367" y="196.012" style="fill:#56ACE0;" width="22.562" height="21.786"/>
	<rect x="184.952" y="196.012" style="fill:#56ACE0;" width="22.562" height="21.786"/>
	<rect x="283.603" y="196.012" style="fill:#56ACE0;" width="22.562" height="21.786"/>
	<rect x="86.367" y="294.404" style="fill:#56ACE0;" width="22.562" height="21.786"/>
	<rect x="283.603" y="294.404" style="fill:#56ACE0;" width="22.562" height="21.786"/>
</g>
<g>
	<path style="fill:#194F82;" d="M120.306,239.713H75.118c-6.271,0-11.313-4.848-11.313-10.925v-43.572
		c0-6.012,5.042-10.925,11.313-10.925h45.188c6.271,0,11.313,4.848,11.313,10.925v43.572
		C131.619,234.8,126.577,239.713,120.306,239.713z M86.367,217.798h22.562v-21.786H86.367V217.798z"/>
	<path style="fill:#194F82;" d="M218.892,239.713h-45.188c-6.271,0-11.313-4.848-11.313-10.925v-43.572
		c0-6.012,5.042-10.925,11.313-10.925h45.188c6.271,0,11.313,4.848,11.313,10.925v43.572
		C230.205,234.8,225.163,239.713,218.892,239.713z M184.952,217.798h22.562v-21.786h-22.562V217.798L184.952,217.798z"/>
	<path style="fill:#194F82;" d="M317.478,239.713H272.29c-6.271,0-11.313-4.848-11.313-10.925v-43.572
		c0-6.012,5.042-10.925,11.313-10.925h45.188c6.271,0,11.313,4.848,11.313,10.925v43.572
		C328.791,234.8,323.748,239.713,317.478,239.713z M283.603,217.798h22.562v-21.786h-22.562V217.798z"/>
	<path style="fill:#194F82;" d="M120.306,337.976H75.118c-6.271,0-11.313-4.848-11.313-10.925v-43.507
		c0-6.012,5.042-10.925,11.313-10.925h45.188c6.271,0,11.313,4.848,11.313,10.925v43.572
		C131.619,333.128,126.577,337.976,120.306,337.976z M86.367,316.19h22.562v-21.786H86.367V316.19z"/>
	<path style="fill:#194F82;" d="M317.478,337.976H272.29c-6.271,0-11.313-4.848-11.313-10.925v-43.507
		c0-6.012,5.042-10.925,11.313-10.925h45.188c6.271,0,11.313,4.848,11.313,10.925v43.572
		C328.791,333.128,323.748,337.976,317.478,337.976z M283.603,316.19h22.562v-21.786h-22.562V316.19z"/>
</g>
</svg>